 <svg  version="1.0" xmlns="http://www.w3.org/2000/svg"  width="300.000000pt" height="53.000000pt" viewBox="0 0 300.000000 53.000000"  preserveAspectRatio="xMidYMid meet">  <g transform="translate(0.000000,53.000000) scale(0.100000,-0.100000)" fill="#d91c1c" stroke="none"> <path d="M1667 492 c-15 -26 -29 -124 -25 -176 5 -62 39 -156 64 -177 11 -9 11 -5 4 23 -15 49 -13 138 3 138 7 0 29 -9 49 -20 l37 -19 6 29 c4 16 11 33 17 36 16 10 1 -70 -21 -117 l-19 -39 39 -20 39 -21 12 28 c6 16 12 71 12 123 1 79 -3 104 -23 147 -29 65 -55 91 -41 41 6 -18 10 -51 10 -73 l0 -41 -65 -15 -64 -15 6 26 c3 14 14 44 24 68 l18 42 -39 20 c-21 11 -41 17 -43 12z"/> <path d="M199 446 c-31 -24 -67 -59 -79 -78 -13 -18 -25 -35 -28 -38 -2 -3 -10 4 -18 14 -16 23 -19 14 -4 -15 8 -14 6 -27 -5 -51 l-16 -33 22 25 c17 19 23 22 27 10 8 -23 92 -108 129 -132 38 -23 38 -23 68 34 l15 27 -56 16 c-57 16 -126 54 -139 76 -15 24 118 99 175 99 11 0 20 2 20 6 0 9 -45 84 -50 84 -3 0 -30 -20 -61 -44z"/> <path d="M382 453 c-33 -7 -45 -38 -40 -108 3 -34 1 -70 -5 -80 -7 -12 -6 -16 1 -11 7 4 14 -4 17 -21 10 -47 36 -112 47 -119 6 -4 8 1 5 12 -13 43 -19 116 -13 149 6 28 11 35 30 35 13 0 29 -7 36 -15 17 -21 6 -82 -20 -110 l-20 -21 37 -18 c43 -20 47 -16 63 61 19 91 -22 147 -95 129 -29 -7 -30 -5 -10 60 21 70 23 68 -33 57z"/> <path d="M577 428 c-20 -35 -17 -41 36 -63 28 -12 37 -12 37 -3 -1 20 -38 98 -47 98 -4 0 -16 -14 -26 -32z"/> <path d="M2188 423 c-32 -5 -33 -10 -16 -65 11 -38 10 -40 -18 -63 l-29 -25 34 7 34 6 -6 -69 c-4 -38 -9 -80 -12 -94 -14 -56 23 12 46 86 23 71 26 75 50 71 23 -3 28 2 37 31 l11 34 -34 -4 c-33 -4 -34 -3 -40 44 -4 27 -12 47 -18 47 -7 -1 -24 -4 -39 -6z"/> <path d="M2825 423 c-45 -10 -45 -10 -30 -47 21 -50 19 -61 -17 -85 l-33 -22 39 7 39 7 -6 -69 c-4 -38 -9 -80 -12 -94 -3 -14 8 2 25 35 16 33 33 75 36 93 6 30 10 33 33 30 24 -3 29 1 38 30 l10 33 -36 -3 c-23 -2 -36 1 -37 10 -1 6 -2 28 -3 47 -1 35 -5 37 -46 28z"/> <path d="M2640 386 c0 -4 10 -20 22 -36 28 -39 18 -48 -27 -21 -20 11 -38 21 -39 21 -12 0 -36 -75 -36 -110 0 -34 6 -48 34 -76 19 -19 43 -34 53 -34 10 0 24 -5 31 -12 9 -9 16 -1 31 33 25 55 26 102 2 154 -17 36 -71 98 -71 81z m43 -129 c-4 -17 -27 -73 -40 -96 -7 -12 -33 26 -33 48 0 30 15 53 45 69 26 14 34 7 28 -21z"/> <path d="M2031 346 c24 -42 22 -43 -31 -16 l-39 20 -12 -21 c-47 -88 -18 -180 61 -195 16 -4 30 -10 30 -15 0 -36 37 24 55 88 8 29 -10 92 -37 133 -32 46 -54 51 -27 6z m-1 -138 c-11 -15 -18 -33 -15 -38 12 -20 -14 -10 -28 11 -23 33 -4 83 38 99 29 11 33 -34 5 -72z"/> <path d="M686 339 c-7 -39 -8 -194 0 -201 3 -3 20 -1 38 4 l34 11 -18 41 c-10 22 -20 52 -22 66 -2 21 2 26 25 28 57 7 84 -53 57 -124 -16 -42 -4 -40 25 4 57 86 40 172 -33 172 -20 0 -46 -7 -56 -15 -30 -22 -39 -18 -34 15 6 40 -8 39 -16 -1z"/> <path d="M2370 303 c-15 -40 -24 -88 -27 -155 -7 -127 -5 -132 45 -110 l39 16 -13 33 c-19 45 -19 46 22 68 98 53 112 185 20 185 -17 0 -38 -6 -45 -12 -11 -11 -13 -9 -8 10 10 44 -11 21 -33 -35z m75 -27 c9 -13 13 -31 9 -42 -11 -29 -44 -74 -55 -74 -14 0 -11 127 4 133 22 9 26 7 42 -17z"/> <path d="M894 326 c13 -20 15 -31 7 -39 -19 -19 -13 -92 9 -120 23 -28 84 -46 108 -31 7 5 20 26 27 47 12 35 12 38 -3 31 -60 -25 -112 -4 -112 44 l0 27 18 -22 c17 -23 18 -23 51 -5 19 9 39 25 45 35 22 37 -58 63 -104 35 -16 -10 -23 -9 -42 7 l-22 20 18 -29z m119 -21 c-3 -13 -30 -18 -51 -10 -14 5 -14 7 -2 16 19 11 56 8 53 -6z"/> <path d="M1156 325 c-72 -29 -91 -45 -55 -45 27 0 48 -18 69 -59 l12 -24 -50 6 -50 6 11 -37 c6 -20 12 -39 13 -41 2 -2 19 6 39 18 43 25 45 25 45 6 0 -21 10 -18 44 9 l29 24 -52 52 -53 53 47 -5 c44 -5 46 -4 41 16 -3 11 -6 27 -6 34 0 17 -17 15 -84 -13z"/> <path d="M601 315 c-2 -34 -24 -141 -36 -168 -7 -17 -4 -18 31 -11 22 3 43 10 47 14 10 9 -7 116 -26 160 l-15 35 -1 -30z"/> <path d="M1290 332 c0 -4 5 -13 12 -20 9 -9 9 -15 0 -24 -7 -7 -12 -31 -12 -54 0 -57 31 -93 85 -101 45 -6 55 2 73 56 11 30 10 32 -6 26 -60 -26 -112 -6 -112 43 l0 27 19 -24 19 -24 32 19 c48 28 60 52 36 70 -24 17 -78 18 -94 2 -10 -10 -17 -10 -32 0 -11 7 -20 9 -20 4z m123 -27 c-3 -13 -30 -18 -51 -10 -14 5 -14 7 -2 16 19 11 56 8 53 -6z"/> </g> </svg> 